<svg id="Layer_1" data-name="Layer 1" xmlns="http://www.w3.org/2000/svg" viewBox="0 0 400 300" width="406" height="306" class="illustration styles_illustrationTablet__1DWOa"><path d="M277.61,217c-4.58-1.52-17.15-10.52-29.32-19.22-10.61-7.59-21.58-15.44-26.57-17.82-8.4-4-13-3.58-14.47-3.27l15.64,13-.64.77L210,180.35c1.82,3.5,4.68,10.05,3,13.78a4.67,4.67,0,0,1-3.76,2.66,3.64,3.64,0,0,1-3.55-1.06c-1.52-1.71-1.66-5.14-1.32-8.48-1.43,3.47-3.38,6.86-5.74,7.59a3.71,3.71,0,0,1-3.73-1.07c-2-1.79-2.77-3.75-2.42-5.83,1.09-6.37,12.88-11.57,13.83-12l0,0,0,0,0,0c.2-.08,5-2,15.79,3.16,5.07,2.41,15.59,9.94,26.72,17.91,12.11,8.66,24.62,17.61,29.06,19.08ZM206.5,181c-.9,3.75-2.36,11.47-.06,14.05a2.65,2.65,0,0,0,2.64.74,3.67,3.67,0,0,0,3-2.08c2.13-4.68-4.17-15.11-4.23-15.21l-1-1.68-.1,0c-.12,0-12.26,5.28-13.27,11.23-.3,1.75.39,3.36,2.11,4.93a2.76,2.76,0,0,0,2.76.86c3.13-1,5.82-8.33,7.13-12.94.3-1.3.56-2.18.6-2.31l1,.25C207,179,206.83,179.83,206.5,181Z" fill="#24285b"></path><path d="M152.4,250.91s1.64,3.46,4.91,3.42,4.43,3,1.6,4.16-10.73-1.91-10.73-1.91l-.31-6Z" fill="#68e1fd"></path><path d="M118.88,250.91s-1.64,3.46-4.91,3.42-4.43,3-1.59,4.16,10.73-1.91,10.73-1.91l.31-6Z" fill="#68e1fd"></path><ellipse cx="201.26" cy="257.83" rx="137.35" ry="11.93" fill="#e6e6e6" opacity="0.39"></ellipse><path d="M135.77,75.11s31,3.88,29.94,46.18S203.15,172,203.15,172l-4.08,9.73s-29.36-4.88-46.21-33.48S135.77,75.11,135.77,75.11Z" fill="#68e1fd"></path><path d="M135.77,75.11s31,3.88,29.94,46.18S203.15,172,203.15,172l-4.08,9.73s-29.36-4.88-46.21-33.48S135.77,75.11,135.77,75.11Z" fill="#fff" opacity="0.44"></path><polygon points="128.31 52.74 122.53 74.34 134.66 76.68 134 60.02 128.31 52.74" fill="#f4a28c"></polygon><path d="M134.3,63.66a8.15,8.15,0,0,1-3.73-2.78s-.25,4.09,3.8,8.57Z" fill="#ce8172" opacity="0.31"></path><path d="M121.62,74.08,137,75.37s30.38,8.93,29.16,37.49-4,63.54-4,63.54l-40.86,5.35S53.32,89.29,121.62,74.08Z" fill="#68e1fd"></path><path d="M113.33,90.24s16.28,9.27,15.26,26.63-5.14,37.07,12.78,35.06,23-7.7,23-7.7l-2.27,32.17-40.86,5.35-3.68-5.35S83,114.41,113.33,90.24Z" opacity="0.08"></path><rect x="183.12" y="104.92" width="10.94" height="19.71" transform="translate(332.65 282.06) rotate(-162.06)" fill="#ffd200"></rect><path d="M179.29,131.34s9.75-6.94,7.36-11.28-12,5.62-12,5.62Z" fill="#f4a28c"></path><path d="M121.26,181.75l40.86-5.35-7.73,75h-9.53s.71-38.46-5.09-49.87S121.26,181.75,121.26,181.75Z" fill="#24285b"></path><path d="M121.26,181.75l-6,69.63h10.44s7.27-52.77,26-66.38Z" fill="#24285b"></path><path d="M141.09,53.15s-1.78,6.59-4.41,10.44a3.43,3.43,0,0,1-4.78.88c-1.92-1.35-4.13-3.73-3.6-7.38l.13-6.3a6.13,6.13,0,0,1,4.78-5.22C137.78,44.29,142.37,49.19,141.09,53.15Z" fill="#f4a28c"></path><path d="M139.4,52.83a27.45,27.45,0,0,1-5.74-2.61,5.68,5.68,0,0,1-2.15,5.86,4.64,4.64,0,0,1-5.89-.18l3.12-8.2a7,7,0,0,1,5.43-4.61,26.32,26.32,0,0,1,3.24-.34c2.72-.08,5.62,2.77,8.33,2a1.64,1.64,0,0,1,2.08,1.9c-.55,2.64-2.44,6.42-6.33,6.55A6.21,6.21,0,0,1,139.4,52.83Z" fill="#24285b"></path><path d="M132.27,56.14s.85-2.48-1.07-3-3.18,3.1-.78,4.35Z" fill="#f4a28c"></path><path d="M139.75,57.24l.88,3.12a1.1,1.1,0,0,1-1.23,1.38l-2.62-.44Z" fill="#f4a28c"></path><path d="M114.49,92.78a10.86,10.86,0,0,0-19-3.35C91,95.3,87.08,104,88.14,116.23c2.3,26.3,10.42,56.68,29,52.85s63.82-35.74,63.82-35.74l-6.21-7.66s-37.95,20.68-52.17,18.38C111,142.2,121,113.8,114.49,92.78Z" fill="#68e1fd"></path><path d="M114.49,92.78a10.86,10.86,0,0,0-19-3.35C91,95.3,87.08,104,88.14,116.23c2.3,26.3,10.42,56.68,29,52.85s63.82-35.74,63.82-35.74l-6.21-7.66s-37.95,20.68-52.17,18.38C111,142.2,121,113.8,114.49,92.78Z" fill="#fff" opacity="0.44"></path><rect x="181.79" y="50.16" width="44.29" height="34.49" fill="#e6e6e6"></rect><path d="M278.41,210.62s3.7-5.17,9.71-2.94c5,1.86,7.05,6.12,11.11,5.88a2.67,2.67,0,0,1,2.77,3.09c-.4,2.39-1.86,4.8-6.37,3.63-8.12-2.13-5.06,6.44-12.44,3.1S274.13,217.35,278.41,210.62Z" fill="#24285b"></path><polygon points="280.9 211.54 275.35 202.05 284.2 209.05 280.9 211.54" fill="#24285b"></polygon><polygon points="283.63 210.06 281.88 199.21 287.61 208.92 283.63 210.06" fill="#24285b"></polygon><circle cx="287.45" cy="211.41" r="1.08" fill="#fff"></circle><polygon points="276.66 213.93 289.48 223.64 286.41 227.11 273.34 217.48 276.66 213.93" fill="#ffd200"></polygon><path d="M273.34,217.48s-10.84,10.23-23.94,6.68-18.94,8.16-14.49,13.74,57,14.09,51.5-10.79" fill="#24285b"></path><path d="M240.66,230.71s-17.93-.25-17.51-23.59c0,0-13.46,26,17.51,28.08Z" fill="#24285b"></path><path d="M254.36,237.15s4.74,11.7-7.8,12-9.48,8-9.48,8h-3.65s-2.18-8.89,3.11-11.22-1.63-8-1.63-8S242.66,224.33,254.36,237.15Z" fill="#24285b"></path><path d="M286.81,230.71l1,5.52a17.89,17.89,0,0,0,6.36,10.64l5.57,4.49L298.39,253l-11.53-5.05a7.83,7.83,0,0,1-3.66-3.28l-5.43-9.46Z" fill="#24285b"></path><path d="M285.51,233.62l-2.56,5a17.83,17.83,0,0,0-1.48,12.3l1.65,7-2.1.43-6-11a7.87,7.87,0,0,1-.88-4.83l1.49-10.81Z" fill="#24285b"></path><path d="M261.92,240.53s.73,7.1-3.55,11-3.56,6.83-3.56,6.83h-3.13a10.08,10.08,0,0,1,0-4.8,10.38,10.38,0,0,0-2-8.65l-2.89-3.73Z" fill="#24285b"></path><path d="M202.51,173.56s10.73-1.16,10.48,4.2-12.87,1.49-12.87,1.49Z" fill="#f4a28c"></path><path d="M210.05,68.77h-.14V63.53a4.9,4.9,0,0,0-4.67-4.88,1.52,1.52,0,0,0,.56-1.18,1.57,1.57,0,1,0-2.57,1.19,4.89,4.89,0,0,0-4.64,4.87v5.24h0a1.78,1.78,0,0,0-1.77,1.77v.55a1.78,1.78,0,0,0,1.77,1.77h11.46a1.77,1.77,0,0,0,1.77-1.77v-.55A1.77,1.77,0,0,0,210.05,68.77Z" fill="#c1c1c1"></path><path d="M202.12,73.89a2.31,2.31,0,0,0-.16.83,2.28,2.28,0,1,0,4.55,0,2.12,2.12,0,0,0-.17-.83Z" fill="#c1c1c1"></path><polygon points="187.03 82.08 190.66 95.53 194.09 82.08 187.03 82.08" fill="#e6e6e6"></polygon><circle cx="225.43" cy="83.73" r="7.53" fill="#24285b"></circle><path d="M226.77,80.25v7H225.3V81.65h0l-1.6,1V81.34l1.72-1.09Z" fill="#fff"></path></svg>