<svg xmlns="http://www.w3.org/2000/svg" viewBox="0 0 400 300" width="406" height="306" class="illustration styles_illustrationTablet__1DWOa"><g id="_544_relaxing_outline" data-name="#544_relaxing_outline"><path d="M180,108.79l-70.67,17.47s9.57,26.89,17.17,39.35,74.91-9.32,74.91-9.32Z" fill="#fff"></path><path d="M139.09,170.49c-7.22,0-11.66-1.46-13.43-4.36-7.57-12.41-17.17-39.26-17.26-39.53a1,1,0,0,1,.06-.81,1,1,0,0,1,.64-.5l70.67-17.47a1,1,0,0,1,1.15.56l21.41,47.5a1,1,0,0,1,0,.82,1,1,0,0,1-.6.55c-.17.05-17.08,5.5-34.7,9.35C155.18,169.19,145.9,170.49,139.09,170.49ZM110.66,127c1.84,5.06,10.09,27.28,16.71,38.13,5.79,9.49,53.41-3.27,72.68-9.41L179.44,110Z" fill="#093f68"></path><path d="M185.83,137.9c1.56-.65,13.33-11.64,13.33-11.64l-18-3.77,2-9.77s19.49-.51,27.5,7c4.29,4,6.73,8.78,1.56,15.15-3.49,4.31-21.61,21.75-21.61,21.75Z" fill="#ffc9b0"></path><path d="M190.56,157.67a.84.84,0,0,1-.27,0,1,1,0,0,1-.7-.72l-4.73-18.77a1,1,0,0,1,.58-1.16c.88-.41,6.35-5.26,11.62-10.14l-16.13-3.37a1,1,0,0,1-.77-1.18l2-9.77a1,1,0,0,1,1-.8c.81,0,20-.43,28.21,7.32,3.66,3.45,7.81,8.92,1.66,16.51-3.49,4.31-20.95,21.13-21.69,21.84A1,1,0,0,1,190.56,157.67ZM187,138.35l4.14,16.4c4.14-4,17.4-16.9,20.29-20.46,4-4.93,3.55-9-1.48-13.79-6.73-6.35-22.3-6.77-26-6.78l-1.62,8,17.05,3.57a1,1,0,0,1,.48,1.71C197.35,129.32,189.72,136.39,187,138.35Z" fill="#093f68"></path><path d="M259.41,151.88c.56-.28,8.73-4.92,8.73-4.92s-2-11.83-.85-12.39,11.83,21.68,11.83,21.68l-17.18,7.6Z" fill="#ffc9b0"></path><path d="M261.94,164.85a1,1,0,0,1-.45-.11,1,1,0,0,1-.52-.68l-2.54-12A1,1,0,0,1,259,151c.37-.19,4.83-2.71,8.08-4.56-1.94-11.89-.81-12.45-.19-12.76a1.14,1.14,0,0,1,.87,0c1.29.44,5.43,7.91,12.3,22.19a1,1,0,0,1-.5,1.35l-17.17,7.6A1,1,0,0,1,261.94,164.85Zm-1.4-12.45,2.13,10,15.1-6.69c-3.71-7.66-7.82-15.65-9.82-18.89a92,92,0,0,0,1.17,9.93,1,1,0,0,1-.49,1C267.92,148.23,262.52,151.3,260.54,152.4Z" fill="#093f68"></path><path d="M216.33,174.69c1.41-.28,44.21-24.78,44.21-24.78l11.54,15.7s-41.39,29.63-49.84,23.44-4.78-17.18-4.78-17.18" fill="#093f68"></path><path d="M225.38,190.85a6.26,6.26,0,0,1-3.73-1c-5.65-4.15-6.22-10.33-5.87-14.34a1,1,0,0,1-.43-.64,1,1,0,0,1,.66-1.14,16.13,16.13,0,0,1,.5-2.18,1,1,0,0,1,1.9.63s-.06.18-.13.41c6.85-3.67,27.48-15.38,41.76-23.56a1,1,0,0,1,1.3.28L272.89,165a1.06,1.06,0,0,1,.18.75,1,1,0,0,1-.41.66C268.82,169.17,238.14,190.85,225.38,190.85Zm-7.59-15.76c-.44,3.48-.21,9.3,5.05,13.15,1.77,1.3,7.63,1.8,27-9.45,9.4-5.47,18.18-11.53,20.85-13.41l-10.41-14.16C248.33,158.05,223.75,172.07,217.79,175.09Z" fill="#093f68"></path><path d="M129,166.58h0a1,1,0,0,1-1-1c.75-19.73-11.4-34.85-11.52-35a1,1,0,1,1,1.55-1.27c.52.64,12.75,15.83,12,36.35A1,1,0,0,1,129,166.58Z" fill="#093f68"></path><path d="M161.14,146.11l24.69-8.21c3,.48-1.09,12.39,4.73,18.77s-5.64,15.58-5.64,15.58l-11.67,2.44s-2.47-9-6.4-14.64" fill="#ffc9b0"></path><path d="M173.25,175.69a1,1,0,0,1-1-.74c0-.08-2.48-8.91-6.26-14.33a1,1,0,0,1,.25-1.39,1,1,0,0,1,1.39.25c3.29,4.71,5.54,11.58,6.28,14l10.53-2.2c1-.89,6.37-5.61,6.71-10.09a4.92,4.92,0,0,0-1.37-3.89c-3.64-4-3.68-9.82-3.71-14.08,0-1.5,0-3.71-.36-4.28l-24.29,8.08a1,1,0,1,1-.63-1.9L185.51,137a1.12,1.12,0,0,1,.48,0c2.08.34,2.1,3,2.12,6.34,0,3.93.06,9.32,3.19,12.75a6.92,6.92,0,0,1,1.89,5.39c-.45,5.81-7.35,11.4-7.64,11.64a1,1,0,0,1-.42.2l-11.67,2.44Z" fill="#093f68"></path><path d="M139,129.89a13.41,13.41,0,0,1-5.46-1.26c-3.15-1.54-5.59-4.2-8-6.79a8.27,8.27,0,0,0,6.3-4.16,18.13,18.13,0,0,1-12.83,1.13c3.34-1.49,4.63-5.58,4.81-9.23s-.33-7.45,1-10.87c1.7-4.46,5.12-5.68,9.29-6.72-2.42-6.62-.54-14.24,6.42-17,11.16-4.47,21.83,5.51,27.89,2.44s6.78-6.47,6.78-6.47a12.3,12.3,0,0,1,3,13.32s4.51-3.16,7.38,3.3,4.9,25.52,4.9,25.52l-4.81.75c-2,.31-4.25,1.59-6.15,2.3l-14,5.27C158.52,124,147.76,130.19,139,129.89Z" fill="#725858"></path><path d="M139.65,130.9H139a14.31,14.31,0,0,1-5.86-1.37c-3.37-1.64-6-4.49-8.25-7a1,1,0,0,1,.64-1.67,7,7,0,0,0,2.58-.79,19.17,19.17,0,0,1-9.28-.28,1,1,0,0,1-.73-.89,1,1,0,0,1,.6-1c3.5-1.56,4.11-6.37,4.21-8.37,0-1,0-2,0-3a22.28,22.28,0,0,1,1-8.17c1.73-4.53,5.16-6,8.94-7.07C131,84.76,132.8,77,140.23,74c6.58-2.63,13-.49,18.22,1.23,3.91,1.3,7.29,2.41,9.59,1.25,5.46-2.77,6.25-5.77,6.25-5.8A1,1,0,0,1,175,70a1,1,0,0,1,1,.19,13.47,13.47,0,0,1,3.89,12.4,5.16,5.16,0,0,1,2.36.08c1.82.5,3.3,2,4.4,4.48,2.9,6.53,4.9,25,5,25.82a1,1,0,0,1-.84,1.09l-4.81.75h0a17.29,17.29,0,0,0-4,1.41c-.69.31-1.35.61-2,.85l-14,5.27c-1.74.65-3.76,1.55-5.89,2.49C153.86,127.54,146.25,130.9,139.65,130.9Zm-12.1-8.45a22.73,22.73,0,0,0,6.47,5.28,12.55,12.55,0,0,0,5,1.17h0c6.29.23,14-3.18,20.14-5.91,2.15-1,4.19-1.86,6-2.53l14.05-5.27c.6-.23,1.24-.51,1.88-.8a18,18,0,0,1,4.46-1.56l0,.08c.65-.18,1.81-.37,3.85-.68-.45-3.91-2.3-18.84-4.72-24.27-.84-1.89-1.87-3-3.08-3.37a3.73,3.73,0,0,0-2.81.49,1,1,0,0,1-1.18,0,1,1,0,0,1-.33-1.13,11.14,11.14,0,0,0-1.78-11.21c-.85,1.43-2.7,3.6-6.62,5.59-3,1.55-6.78.31-11.12-1.13-5.13-1.7-10.95-3.63-16.84-1.27-6.65,2.66-8,9.94-5.86,15.76a1,1,0,0,1-.06.81,1,1,0,0,1-.64.5c-3.92,1-7,2.06-8.6,6.11a20.44,20.44,0,0,0-.86,7.45c0,1,0,2.07,0,3.11-.1,1.94-.63,6.14-3.31,8.69a17.12,17.12,0,0,0,9.89-1.54,1,1,0,0,1,1.17.21,1,1,0,0,1,.15,1.17A9.21,9.21,0,0,1,127.55,122.45Z" fill="#093f68"></path><path d="M156.07,147.67c.14-.06,4.58-1.76,5.07-1.56s5.56,15.62,17.93,12c8.26-2.44,2.55-17.5,2.55-18.75l4.21-1.43c5.95,6.84,9.47,20.1,10.23,28.72.41,4.64,1.43,9.33,5.36,20.88L163,200.56,152.58,170C157.94,167.46,161.71,161.42,156.07,147.67Z" fill="#f56132"></path><path d="M163,201.56a1,1,0,0,1-.94-.67c-10.4-30.59-10.4-30.6-10.41-30.61a1,1,0,0,1,.53-1.21c6.46-3,7.46-10.1,3-21a1,1,0,0,1,.54-1.3s4.78-2,5.84-1.56c.42.17.54.43,1,1.31,4.26,9,9.75,12.56,16.31,10.62,6-1.77,3.26-12.06,2.23-15.94a8.72,8.72,0,0,1-.4-1.86,1,1,0,0,1,.68-.94l4.21-1.43a1,1,0,0,1,1.07.29c5.76,6.62,9.63,19.75,10.48,29.29.39,4.41,1.35,9,5.31,20.65a1,1,0,0,1-.63,1.26L163.3,201.51A.86.86,0,0,1,163,201.56Zm-9.17-31.09c1.46,4.3,8.23,24.23,9.8,28.82l36.54-12.42c-3.75-11.14-4.69-15.72-5.09-20.16-.79-9-4.32-21.2-9.56-27.65l-2.72.93c.05.21.12.45.18.68,1.16,4.39,4.24,16.05-3.6,18.37-7.66,2.26-13.94-1.67-18.69-11.69a1.3,1.3,0,0,1-.08-.17c-.78.2-2.22.7-3.21,1.06C162.67,161.85,158.6,167.84,153.81,170.47ZM161,147.1Z" fill="#093f68"></path><path d="M168.54,146l-1.78-4.64,8-3.09,1.79,4.64" fill="#ffc9b0"></path><path d="M168.54,147a1,1,0,0,1-.93-.64l-1.79-4.64a1,1,0,0,1,.58-1.29l8-3.1a1,1,0,0,1,.76,0,1,1,0,0,1,.53.56l1.79,4.64a1,1,0,0,1-.57,1.29,1,1,0,0,1-1.3-.57l-1.43-3.71L168.05,142l1.43,3.7a1,1,0,0,1-.58,1.3A1.09,1.09,0,0,1,168.54,147Z" fill="#093f68"></path><path d="M147.56,124.76c1.44,3.72-.89,8.09-5.2,9.75s-9.72-2-11.16-5.69,1.65-6.14,6-7.8S146.13,121,147.56,124.76Z" fill="#ffc9b0"></path><path d="M140.12,135.91a11.4,11.4,0,0,1-9.85-6.73c-1.46-3.8.73-6.86,6.53-9.1,4.81-1.85,10.06.08,11.7,4.32h0c1.62,4.23-1,9.18-5.79,11A7.19,7.19,0,0,1,140.12,135.91Zm.44-14.53a8.43,8.43,0,0,0-3,.57c-6.16,2.37-6,4.85-5.38,6.51,1.31,3.42,6.22,6.51,9.86,5.11s5.86-5.25,4.63-8.46h0A6.29,6.29,0,0,0,140.56,121.38Z" fill="#093f68"></path><path d="M192.31,105.28c1.43,3.73-.15,10-4.46,11.7s-9,0-10.4-3.74.9-8.09,5.21-9.75S190.87,101.56,192.31,105.28Z" fill="#ffc9b0"></path><path d="M184.45,118.63a9.53,9.53,0,0,1-3.22-.56A7.56,7.56,0,0,1,177,107.12a10,10,0,0,1,5.28-4.56,13.89,13.89,0,0,1,6.37-1.19,5.29,5.29,0,0,1,4.57,3.55h0c1.67,4.34-.32,11.18-5,13A10.53,10.53,0,0,1,184.45,118.63Zm3.35-15.3a14,14,0,0,0-4.79,1.1,8,8,0,0,0-4.23,3.63,5.56,5.56,0,0,0,3.13,8.13,8,8,0,0,0,5.58-.14c3.64-1.4,5.2-7,3.88-10.41a3.26,3.26,0,0,0-2.92-2.28C188.24,103.34,188,103.33,187.8,103.33Z" fill="#093f68"></path><path d="M171.18,140.9h0a25.25,25.25,0,0,1-32.63-14.54l-4.21-10.93c-2.18-5.67,2.37-19.59,8-21.77,0,0,3,5,13.68,6.28,7.49.89,16.34-2.27,22.18-10.91l7.39,19.2A25.25,25.25,0,0,1,171.18,140.9Z" fill="#ffc9b0"></path><path d="M162.13,143.6a26.36,26.36,0,0,1-24.51-16.88l-4.21-10.93c-1.34-3.48-.33-8.94,1.06-12.89,1.86-5.26,4.68-9.07,7.54-10.17a1,1,0,0,1,1.22.42s3,4.61,12.94,5.8c6.33.75,15.24-1.61,21.23-10.48a1,1,0,0,1,1.76.2l7.4,19.2a26.26,26.26,0,0,1-24.43,35.73ZM142.07,94.92c-2.09,1.23-4.23,4.44-5.71,8.65-1.6,4.54-2,9.06-1.08,11.5l4.2,10.93a24.22,24.22,0,1,0,45.21-17.41L178,91.11a24.44,24.44,0,0,1-22,9.82C147.24,99.9,143.38,96.45,142.07,94.92Z" fill="#093f68"></path><path d="M166,105a2,2,0,0,1-.7-3.87L175.7,97.2a2,2,0,0,1,1.41,3.74l-10.42,3.94A1.94,1.94,0,0,1,166,105Z" fill="#093f68"></path><path d="M140.76,114.72a2,2,0,0,1-.7-3.87l10.41-3.93a2,2,0,1,1,1.42,3.74l-10.42,3.93A1.94,1.94,0,0,1,140.76,114.72Z" fill="#093f68"></path><path d="M165.2,123.75a1,1,0,0,1-.19-2,11.34,11.34,0,0,0,3-1.06,17.68,17.68,0,0,0-3.68-4.15,1,1,0,0,1,1.32-1.5c1.69,1.49,4.51,4.25,4.41,5.94a1.47,1.47,0,0,1-.64,1.17,12.14,12.14,0,0,1-4,1.56Zm2.84-2.84h0Z" fill="#093f68"></path><path d="M306.88,122.5a106.89,106.89,0,0,1-213.77,0c22.92,28.94,62.23,48,106.89,48S284,151.43,306.88,122.5Z" fill="#68e1fd"></path><path d="M200,230.07A108.08,108.08,0,0,1,92.11,122.49a1,1,0,0,1,.67-.95,1,1,0,0,1,1.11.33c23.63,29.83,63.3,47.64,106.11,47.64s82.47-17.81,106.1-47.63a1,1,0,0,1,1.11-.33,1,1,0,0,1,.67,1A108.07,108.07,0,0,1,200,230.07ZM94.16,125.36a105.88,105.88,0,0,0,211.67,0c-24.19,28.94-63.51,46.14-105.83,46.14S118.34,154.31,94.16,125.36Z" fill="#093f68"></path><path d="M200,171.51c-26.56,0-52.07-6.69-73.76-19.35C105,139.77,88.86,122.59,79.57,102.47a1,1,0,0,1,1.82-.84c9.11,19.74,25,36.62,45.85,48.8,21.4,12.48,46.55,19.08,72.76,19.08s51.36-6.6,72.76-19.08c20.88-12.18,36.74-29.06,45.85-48.8a1,1,0,1,1,1.82.84c-9.29,20.12-25.43,37.3-46.67,49.69C252.07,164.82,226.56,171.51,200,171.51Z" fill="#093f68"></path><path d="M149.58,120.78a8.77,8.77,0,0,1-3.17-.57,1,1,0,0,1,.75-1.86,6.56,6.56,0,0,0,8.14-3,1,1,0,1,1,1.74,1A8.32,8.32,0,0,1,149.58,120.78Z" fill="#093f68"></path><path d="M175,113.44a10.5,10.5,0,0,1-5.49-1.88,1,1,0,0,1-.23-1.39,1,1,0,0,1,1.4-.23c.06,0,2.88,2,5.41,1.37a4.88,4.88,0,0,0,3-3,1,1,0,0,1,1.82.85,6.76,6.76,0,0,1-4.37,4A6.62,6.62,0,0,1,175,113.44Z" fill="#093f68"></path><path d="M161.49,132.34h-.4a1,1,0,0,1-1-1.05,1,1,0,0,1,1.05-.95,21.1,21.1,0,0,0,13.2-4.83,1,1,0,0,1,1.41.12,1,1,0,0,1-.12,1.41A22.88,22.88,0,0,1,161.49,132.34Z" fill="#093f68"></path><path d="M164.56,190l-15.25-21.89,7-4,5.7.85a58.62,58.62,0,0,0-1.44-9.5c-1.26-5.56-4.48-7.8-4.48-7.8s-29.75,9-27.1,17.91,23.61,28.63,23.61,28.63-.35,6.19,5.28,7.7c0,0-5.25,4.13-1.69,5.63s15.41-2.44,15.5-8.07S164.56,190,164.56,190Z" fill="#ffc9b0"></path><path d="M158.22,208.86a6.49,6.49,0,0,1-2.44-.4,2.69,2.69,0,0,1-1.83-2.12c-.2-1.48,1-3,2-4.08a8.61,8.61,0,0,1-4.41-7.63c-2.76-2.63-21-20.23-23.56-28.76-2.85-9.57,24.63-18.2,27.77-19.16a1,1,0,0,1,.86.14c.15.1,3.55,2.53,4.89,8.4a60.09,60.09,0,0,1,1.46,9.68,1,1,0,0,1-.33.79,1,1,0,0,1-.82.24l-5.35-.8-5.74,3.29,14.5,20.8c1.28.73,7.5,4.57,7.42,10.23,0,2.21-1.5,4.32-4.24,6.11A20.61,20.61,0,0,1,158.22,208.86Zm-2.37-60.08c-11.14,3.45-27.62,10.82-25.92,16.51,2.55,8.54,23.13,28,23.34,28.19a1,1,0,0,1,.31.79c0,.21-.22,5.4,4.54,6.67a1,1,0,0,1,.72.77,1,1,0,0,1-.36,1c-1.14.9-2.65,2.57-2.54,3.38,0,.2.23.38.62.55,1.83.77,7-.27,10.77-2.7,2.13-1.39,3.31-3,3.34-4.47.07-4.94-6.51-8.51-6.58-8.55a1,1,0,0,1-.35-.31L148.49,168.7a1,1,0,0,1-.16-.79,1,1,0,0,1,.48-.65l7-4a1.06,1.06,0,0,1,.65-.12l4.46.67a65.29,65.29,0,0,0-1.32-8.11A13.3,13.3,0,0,0,155.85,148.78Z" fill="#093f68"></path></g></svg>